<?xml version="1.0" encoding="utf-8"?>
<!-- Generator: Adobe Illustrator 24.3.0, SVG Export Plug-In . SVG Version: 6.00 Build 0)  -->
<svg version="1.1" id="Capa_1" xmlns="http://www.w3.org/2000/svg" xmlns:xlink="http://www.w3.org/1999/xlink" x="0px" y="0px"
	 viewBox="0 0 275.7 275.7" style="enable-background:new 0 0 275.7 275.7;" xml:space="preserve">
<style type="text/css">
	.st0{fill:#FFFFFF;}
</style>
<g>
	<path class="st0" d="M137.9,275.7c76.1,0,137.9-61.7,137.9-137.9C275.7,61.7,214,0,137.9,0C61.7,0,0,61.7,0,137.9
		C0,214,61.7,275.7,137.9,275.7z M98.5,155.3c5.4-1.1,10.7-0.9,15.4,0.5v-32.1c0,0,0,0,0,0V98.5c0-3.9,2.8-7.3,6.6-8.1l69.3-14.6
		c0,0,0,0,0,0c0.3-0.1,0.5-0.1,0.8-0.1c0.3,0,0.6-0.1,0.9-0.1h0c0.1,0,0.2,0,0.3,0c0.4,0,0.9,0,1.3,0.1c0.2,0.1,0.5,0.1,0.7,0.2
		c0.3,0.1,0.6,0.1,0.8,0.2c0.3,0.1,0.5,0.3,0.8,0.4c0.2,0.1,0.4,0.2,0.7,0.4c0.2,0.1,0.4,0.3,0.6,0.5c0.2,0.2,0.4,0.3,0.6,0.5
		c0.2,0.2,0.3,0.4,0.5,0.6c0.2,0.2,0.4,0.4,0.5,0.7c0.2,0.2,0.3,0.5,0.4,0.8c0.1,0.2,0.2,0.4,0.3,0.6c0.2,0.4,0.3,0.9,0.4,1.3
		c0,0.1,0.1,0.2,0.1,0.3v0c0.1,0.3,0.1,0.6,0.1,0.9c0,0.3,0.1,0.5,0.1,0.8l0,0v24.5c0,0,0,0,0,0v51.4c0,0.5-0.1,1-0.1,1.4
		c-0.2,10.7-9.4,20.7-22.5,23.5c-14.8,3.2-28.9-4.2-31.5-16.4c-2.6-12.2,7.3-24.6,22.1-27.7c5.4-1.1,10.7-0.9,15.4,0.5v-22.3v-17
		v-7.7l-52.7,11.1v8v17v44.2c0,0.5-0.1,1-0.1,1.4c-0.2,10.7-9.4,20.7-22.5,23.5C93,202.5,79,195.2,76.4,183
		C73.8,170.9,83.7,158.4,98.5,155.3z"/>
</g>
</svg>
